<svg xmlns="http://www.w3.org/2000/svg" width="px" height="384" viewBox="0 0 384 384">
    <path style="stroke:none;fill-rule:nonzero;fill:#9b4f96;fill-opacity:1" d="M346.2 92.102 201.3 8.699c-2.402-1.5-5.698-2.097-9.3-2.097-3.602 0-6.898.898-9.3 2.097l-144 83.7c-5.098 3-8.7 10.5-8.7 16.203v167.097c0 3.301.602 7.2 3 10.5l320.398-186c-1.796-3.597-4.5-6.3-7.199-8.097Zm0 0"/>
    <path style="stroke:none;fill-rule:nonzero;fill:#68217a;fill-opacity:1" d="M32.102 285.898c1.5 2.403 3.597 4.5 5.699 5.704L182.398 375.3c2.403 1.5 5.704 2.097 9.301 2.097 3.602 0 6.903-.898 9.301-2.097l144-83.7c5.102-3 8.7-10.5 8.7-16.203V108.301c0-2.7-.302-5.7-1.802-8.403Zm0 0"/>
    <path style="stroke:none;fill-rule:nonzero;fill:#fff;fill-opacity:1" d="M255.898 228.3c-12.597 22.2-36.597 37.2-63.898 37.2-40.5 0-73.5-33-73.5-73.5s33-73.5 73.5-73.5c27.3 0 51.3 15 63.898 37.5l39-22.5C274.5 97.8 236.102 73.5 192 73.5c-65.398 0-118.5 53.102-118.5 118.5S126.602 310.5 192 310.5c43.8 0 82.2-24 102.602-59.398ZM291 198.603l2.7-12.903h-12.598v-14.097h15.296L300 153h14.7l-3.598 18.3H322.5l3.602-18.3H340.5l-3.602 18.3h7.204v14.098h-9.903l-2.699 12.903h12.602v14.097H328.8l-3.602 18H310.5l3.602-18h-11.403l-3.597 18h-14.403l3.602-18h-7.2v-14.097H291Zm14.398 0h11.403l2.699-12.903h-11.398Zm0 0"/>
</svg>
