<svg xmlns="http://www.w3.org/2000/svg" width="px" height="384" viewBox="0 0 384 384">
    <path style="stroke:none;fill-rule:nonzero;fill:#1572b6;fill-opacity:1" d="M56.441 342.367 26.281 4.055H357.72l-30.192 338.261-135.726 37.63-135.363-37.579Zm0 0"/>
    <path style="stroke:none;fill-rule:nonzero;fill:#33a9dc;fill-opacity:1" d="m192.004 351.188 109.676-30.41 25.804-289.063h-135.48Zm0 0"/>
    <path style="stroke:none;fill-rule:nonzero;fill:#fff;fill-opacity:1" d="M192.004 154.285h54.906l3.79-42.488h-58.696V70.305H296.05l-.996 11.129-10.203 114.347h-92.848Zm0 0"/>
    <path style="stroke:none;fill-rule:nonzero;fill:#ebebeb;fill-opacity:1" d="m192.25 262.047-.184.055-46.21-12.48-2.954-33.09h-41.644l5.808 65.152 84.993 23.586.191-.051Zm0 0"/>
    <path style="stroke:none;fill-rule:nonzero;fill:#fff;fill-opacity:1" d="m243.383 194.023-5 55.567-46.278 12.492v43.172l85.063-23.574.621-7.012 7.219-80.645Zm0 0"/>
    <path style="stroke:none;fill-rule:nonzero;fill:#ebebeb;fill-opacity:1" d="M192.145 70.305v41.492H91.922l-.832-9.324-1.89-21.035-.993-11.133ZM192 154.289v41.492h-45.629l-.828-9.32-1.895-21.04-.988-11.132Zm0 0"/>
</svg>
