<svg xmlns="http://www.w3.org/2000/svg" width="384" height="384">
    <path style="stroke:none;fill-rule:nonzero;fill:#e44d26;fill-opacity:1" d="M57.113 341.629 27.098 4.984h329.804l-30.047 336.594-135.054 37.438Zm0 0"/>
    <path style="stroke:none;fill-rule:nonzero;fill:#f16529;fill-opacity:1" d="m192 350.398 109.133-30.257 25.68-287.633H192Zm0 0"/>
    <path style="stroke:none;fill-rule:nonzero;fill:#ebebeb;fill-opacity:1" d="M192 157.367h-54.637l-3.773-42.285H192V73.797H88.465l.992 11.078 10.145 113.781H192Zm0 107.227-.184.05-45.98-12.417-2.938-32.926H101.45l5.781 64.828 84.579 23.476.191-.05Zm0 0"/>
    <path style="stroke:none;fill-rule:nonzero;fill:#fff;fill-opacity:1" d="M191.855 157.367v41.29H242.7l-4.793 53.546-46.05 12.426v42.957l84.644-23.457.621-6.977 9.703-108.699 1.004-11.086Zm0-83.57v41.285h99.735l.828-9.273 1.883-20.934.988-11.078Zm0 0"/>
</svg>
